<svg width="13" height="11" viewBox="0 0 13 11" fill="none" xmlns="http://www.w3.org/2000/svg">
<path d="M10.9536 0.35438C11.1761 0.129758 11.4785 0.00236149 11.7947 3.25001e-05C12.1109 -0.00229649 12.4152 0.120631 12.641 0.34195C12.8668 0.56327 12.9959 0.864983 12.9999 1.18115C13.0039 1.49732 12.8827 1.80224 12.6626 2.02927L6.29444 9.99026C6.18504 10.108 6.05303 10.2026 5.90628 10.2682C5.75953 10.3339 5.60107 10.3692 5.44034 10.3723C5.27961 10.3753 5.11993 10.3459 4.97081 10.2859C4.82169 10.2258 4.68621 10.1363 4.57244 10.0228L0.350294 5.80223C0.125928 5.57776 -7.613e-05 5.27335 3.45086e-08 4.95597C7.6199e-05 4.63859 0.126227 4.33425 0.3507 4.10988C0.575174 3.88551 0.879583 3.75951 1.19696 3.75959C1.51434 3.75966 1.81869 3.88581 2.04305 4.11029L5.38227 7.45031L10.9219 0.391744C10.932 0.3789 10.9428 0.366693 10.9544 0.355192L10.9536 0.35438Z" fill="#7F4AFE"/>
</svg>
